<svg height="512pt" viewBox="0 0 512 512" width="512pt" xmlns="http://www.w3.org/2000/svg"><path d="m371.15625 256c0 31.796875-12.890625 60.597656-33.730469 81.425781-20.828125 20.839844-49.628906 33.730469-81.425781 33.730469s-60.597656-12.890625-81.425781-33.730469c-20.839844-20.828125-33.730469-49.628906-33.730469-81.425781s12.890625-60.597656 33.730469-81.425781c20.828125-20.839844 49.628906-33.730469 81.425781-33.730469s60.597656 12.890625 81.425781 33.730469c20.839844 20.828125 33.730469 49.628906 33.730469 81.425781zm0 0" fill="#f8eed3"/><path d="m205.480469 337.425781c-20.839844-20.828125-33.730469-49.628906-33.730469-81.425781s12.890625-60.597656 33.730469-81.425781c17.394531-17.40625 40.355469-29.257813 65.972656-32.695313-5.054687-.675781-10.210937-1.035156-15.453125-1.035156-31.796875 0-60.597656 12.890625-81.425781 33.730469-20.839844 20.828125-33.730469 49.628906-33.730469 81.425781s12.890625 60.597656 33.730469 81.425781c20.828125 20.839844 49.628906 33.730469 81.425781 33.730469 5.242188 0 10.398438-.359375 15.453125-1.035156-25.617187-3.4375-48.578125-15.292969-65.972656-32.695313zm0 0" fill="#ecd8a4"/><path d="m256 0-38.058594 90.484375 38.058594 59.40625c29.296875 0 55.835938 11.878906 75.027344 31.082031l90.488281-15.484375 15.507813-90.511719c-46.335938-46.316406-110.332032-74.976562-181.023438-74.976562zm0 0" fill="#f1cf79"/><path d="m437.023438 228.183594-74.914063 27.816406c0 29.296875-11.878906 55.835938-31.082031 75.027344l15.484375 90.488281 90.511719 15.507813c46.316406-46.335938 74.976562-110.332032 74.976562-181.023438zm0 0" fill="#75c6b9"/><path d="m256 362.109375c-29.296875 0-55.835938-11.878906-75.027344-31.082031l-71.285156 23.871094-34.710938 82.125c46.335938 46.316406 110.332032 74.976562 181.023438 74.976562l38.058594-68.507812zm0 0" fill="#6686cc"/><path d="m165.488281 90.484375-90.511719-15.507813c-46.316406 46.335938-74.976562 110.332032-74.976562 181.023438l74.976562 30.90625 74.914063-30.90625c0-29.296875 11.878906-55.835938 31.082031-75.027344zm0 0" fill="#ee8688"/><g fill="#4e555c"><path d="m194.394531 266.324219c-4.265625 0-7.726562-3.457031-7.726562-7.726563v-11.148437c0-4.265625 3.460937-7.726563 7.726562-7.726563 4.269531 0 7.726563 3.460938 7.726563 7.726563v11.148437c0 4.269532-3.457032 7.726563-7.726563 7.726563zm0 0"/><path d="m317.605469 266.324219c-4.269531 0-7.726563-3.457031-7.726563-7.726563v-11.148437c0-4.265625 3.457032-7.726563 7.726563-7.726563 4.265625 0 7.726562 3.460938 7.726562 7.726563v11.148437c0 4.269532-3.460937 7.726563-7.726562 7.726563zm0 0"/><path d="m256 272.277344c-8.15625 0-15.816406-3.414063-21.023438-9.367188-2.808593-3.214844-2.480468-8.097656.734376-10.902344 3.210937-2.808593 8.09375-2.484374 10.902343.730469 2.269531 2.597657 5.691407 4.085938 9.386719 4.085938s7.117188-1.488281 9.386719-4.085938c2.808593-3.214843 7.691406-3.539062 10.902343-.730469 3.214844 2.804688 3.542969 7.6875.734376 10.902344-5.207032 5.953125-12.867188 9.367188-21.023438 9.367188zm0 0"/></g><path d="m512 256h-149.890625c0-29.296875-11.878906-55.835938-31.082031-75.027344l105.996094-105.996094c46.316406 46.335938 74.976562 110.332032 74.976562 181.023438zm0 0" fill="#99d1c2"/><path d="m437.023438 437.023438c-46.335938 46.316406-110.332032 74.976562-181.023438 74.976562v-149.890625c29.296875 0 55.835938-11.878906 75.027344-31.082031zm0 0" fill="#7f9cdc"/><path d="m180.972656 331.027344-105.996094 105.996094c-46.316406-46.335938-74.976562-110.332032-74.976562-181.023438h149.890625c0 29.296875 11.878906 55.835938 31.082031 75.027344zm0 0" fill="#cf5564"/><path d="m256 0v149.890625c-29.296875 0-55.835938 11.878906-75.027344 31.082031l-105.996094-105.996094c46.335938-46.316406 110.332032-74.976562 181.023438-74.976562zm0 0" fill="#e2a45b"/></svg>