<svg height="296pt" viewBox="0 0 296 296" width="296pt" xmlns="http://www.w3.org/2000/svg" xmlns:xlink="http://www.w3.org/1999/xlink"><linearGradient id="a"><stop offset=".322" stop-color="#a163f5"/><stop offset=".466" stop-color="#b074ee"/><stop offset=".752" stop-color="#d8a1dd"/><stop offset=".898" stop-color="#efbad3"/></linearGradient><linearGradient id="b" gradientUnits="userSpaceOnUse" x1="148" x2="148" xlink:href="#a" y1="394.872" y2="-108.356"/><linearGradient id="c" gradientUnits="userSpaceOnUse" x1="82.844" x2="82.844" xlink:href="#a" y1="394.872" y2="-108.356"/><linearGradient id="d" gradientUnits="userSpaceOnUse" x1="213.156" x2="213.156" xlink:href="#a" y1="394.872" y2="-108.356"/><path d="m247 0h-198c-27.050781.03125-48.96875 21.949219-49 49v198c.03125 27.050781 21.949219 48.96875 49 49h198c27.050781-.03125 48.96875-21.949219 49-49v-198c-.03125-27.050781-21.949219-48.96875-49-49zm31 247c-.019531 17.113281-13.886719 30.980469-31 31h-198c-17.113281-.019531-30.980469-13.886719-31-31v-198c.019531-17.113281 13.886719-30.980469 31-31h198c17.113281.019531 30.980469 13.886719 31 31zm0 0" fill="url(#b)"/><path d="m148 117.28125c-16.964844 0-30.71875 13.753906-30.71875 30.71875s13.753906 30.71875 30.71875 30.71875 30.71875-13.753906 30.71875-30.71875c-.019531-16.957031-13.761719-30.699219-30.71875-30.71875zm0 43.4375c-7.023438 0-12.71875-5.695312-12.71875-12.71875s5.695312-12.71875 12.71875-12.71875 12.71875 5.695312 12.71875 12.71875c-.007812 7.019531-5.699219 12.710938-12.71875 12.71875zm0 0" fill="url(#b)"/><path d="m82.84375 52.125c-16.964844 0-30.71875 13.753906-30.71875 30.71875s13.75 30.71875 30.71875 30.71875c16.964844 0 30.71875-13.753906 30.71875-30.71875-.019531-16.957031-13.761719-30.699219-30.71875-30.71875zm0 43.4375c-7.023438 0-12.71875-5.695312-12.71875-12.71875s5.695312-12.71875 12.71875-12.71875 12.71875 5.695312 12.71875 12.71875c-.007812 7.019531-5.699219 12.710938-12.71875 12.71875zm0 0" fill="url(#c)"/><path d="m213.15625 52.125c-16.964844 0-30.71875 13.753906-30.71875 30.71875s13.753906 30.71875 30.71875 30.71875 30.71875-13.753906 30.71875-30.71875c-.019531-16.957031-13.761719-30.699219-30.71875-30.71875zm0 43.4375c-7.023438 0-12.71875-5.695312-12.71875-12.71875 0-7.027344 5.695312-12.71875 12.71875-12.71875s12.71875 5.695312 12.71875 12.71875c-.007812 7.019531-5.699219 12.710938-12.71875 12.71875zm0 0" fill="url(#d)"/><path d="m82.84375 182.4375c-16.964844 0-30.71875 13.753906-30.71875 30.71875s13.753906 30.71875 30.71875 30.71875 30.71875-13.753906 30.71875-30.71875c-.019531-16.957031-13.761719-30.699219-30.71875-30.71875zm0 43.4375c-7.023438 0-12.71875-5.695312-12.71875-12.71875s5.691406-12.71875 12.71875-12.71875c7.023438 0 12.71875 5.695312 12.71875 12.71875-.007812 7.019531-5.699219 12.710938-12.71875 12.71875zm0 0" fill="url(#c)"/><path d="m213.15625 182.4375c-16.964844 0-30.71875 13.753906-30.71875 30.71875 0 16.96875 13.753906 30.71875 30.71875 30.71875s30.71875-13.753906 30.71875-30.71875c-.019531-16.957031-13.761719-30.699219-30.71875-30.71875zm0 43.4375c-7.023438 0-12.71875-5.695312-12.71875-12.71875s5.695312-12.71875 12.71875-12.71875 12.71875 5.695312 12.71875 12.71875c-.007812 7.019531-5.699219 12.710938-12.71875 12.71875zm0 0" fill="url(#d)"/></svg>