<?xml version="1.0" encoding="iso-8859-1"?>
<!-- Generator: Adobe Illustrator 19.0.0, SVG Export Plug-In . SVG Version: 6.00 Build 0)  -->
<svg xmlns="http://www.w3.org/2000/svg" xmlns:xlink="http://www.w3.org/1999/xlink" version="1.1" id="Capa_1" x="0px" y="0px" viewBox="0 0 512 512" style="enable-background:new 0 0 512 512;" xml:space="preserve" width="512px" height="512px">
<g>
	<g>
		<path d="M59.077,0H14.769C6.613,0,0,6.613,0,14.769v44.308c0,8.157,6.613,14.769,14.769,14.769s14.769-6.613,14.769-14.769V29.538    h29.538c8.157,0,14.769-6.613,14.769-14.769S67.233,0,59.077,0z" fill="#a399b2"/>
	</g>
</g>
<g>
	<g>
		<path d="M497.231,0h-44.308c-8.157,0-14.769,6.613-14.769,14.769s6.613,14.769,14.769,14.769h29.538v29.538    c0,8.157,6.613,14.769,14.769,14.769S512,67.233,512,59.077V14.769C512,6.613,505.387,0,497.231,0z" fill="#a399b2"/>
	</g>
</g>
<g>
	<g>
		<path d="M59.077,482.462H29.538v-29.538c0-8.157-6.613-14.769-14.769-14.769S0,444.767,0,452.923v44.308    C0,505.387,6.613,512,14.769,512h44.308c8.157,0,14.769-6.613,14.769-14.769S67.233,482.462,59.077,482.462z" fill="#a399b2"/>
	</g>
</g>
<g>
	<g>
		<path d="M497.231,438.154c-8.157,0-14.769,6.613-14.769,14.769v29.538h-29.538c-8.157,0-14.769,6.613-14.769,14.769    S444.767,512,452.923,512h44.308c8.157,0,14.769-6.613,14.769-14.769v-44.308C512,444.767,505.387,438.154,497.231,438.154z" fill="#a399b2"/>
	</g>
</g>
<g>
	<g>
		<path d="M14.769,103.385C6.613,103.385,0,109.997,0,118.154v32.434c0,8.158,6.613,14.769,14.769,14.769    s14.769-6.613,14.769-14.769v-32.434C29.538,109.997,22.926,103.385,14.769,103.385z" fill="#a399b2"/>
	</g>
</g>
<g>
	<g>
		<path d="M14.769,184.471C6.613,184.471,0,191.083,0,199.24v32.434c0,8.157,6.613,14.769,14.769,14.769s14.769-6.613,14.769-14.769    V199.24C29.538,191.083,22.926,184.471,14.769,184.471z" fill="#a399b2"/>
	</g>
</g>
<g>
	<g>
		<path d="M14.769,265.557C6.613,265.557,0,272.169,0,280.326v32.434c0,8.157,6.613,14.769,14.769,14.769    s14.769-6.613,14.769-14.769v-32.434C29.538,272.169,22.926,265.557,14.769,265.557z" fill="#a399b2"/>
	</g>
</g>
<g>
	<g>
		<path d="M14.769,346.643C6.613,346.643,0,353.255,0,361.412v32.434c0,8.157,6.613,14.769,14.769,14.769    s14.769-6.613,14.769-14.769v-32.434C29.538,353.255,22.926,346.643,14.769,346.643z" fill="#a399b2"/>
	</g>
</g>
<g>
	<g>
		<path d="M150.588,482.462h-32.434c-8.157,0-14.769,6.613-14.769,14.769S109.997,512,118.154,512h32.434    c8.157,0,14.769-6.613,14.769-14.769S158.746,482.462,150.588,482.462z" fill="#a399b2"/>
	</g>
</g>
<g>
	<g>
		<path d="M231.674,482.462H199.24c-8.157,0-14.769,6.613-14.769,14.769S191.083,512,199.24,512h32.434    c8.157,0,14.769-6.613,14.769-14.769S239.831,482.462,231.674,482.462z" fill="#a399b2"/>
	</g>
</g>
<g>
	<g>
		<path d="M312.76,482.462h-32.434c-8.157,0-14.769,6.613-14.769,14.769S272.169,512,280.326,512h32.434    c8.157,0,14.769-6.613,14.769-14.769S320.918,482.462,312.76,482.462z" fill="#a399b2"/>
	</g>
</g>
<g>
	<g>
		<path d="M393.846,482.462h-32.434c-8.157,0-14.769,6.613-14.769,14.769S353.255,512,361.412,512h32.434    c8.157,0,14.769-6.613,14.769-14.769S402.003,482.462,393.846,482.462z" fill="#a399b2"/>
	</g>
</g>
<g>
	<g>
		<path d="M150.588,241.231h-32.434c-8.157,0-14.769,6.613-14.769,14.769s6.613,14.769,14.769,14.769h32.434    c8.157,0,14.769-6.613,14.769-14.769S158.746,241.231,150.588,241.231z" fill="#a399b2"/>
	</g>
</g>
<g>
	<g>
		<path d="M231.674,241.231H199.24c-8.157,0-14.769,6.613-14.769,14.769s6.612,14.769,14.769,14.769h32.434    c8.157,0,14.769-6.613,14.769-14.769S239.831,241.231,231.674,241.231z" fill="#a399b2"/>
	</g>
</g>
<g>
	<g>
		<path d="M461.61,241.231h-22.587c-8.157,0-14.769,6.613-14.769,14.769s6.613,14.769,14.769,14.769h22.587    c8.157,0,14.769-6.613,14.769-14.769S469.767,241.231,461.61,241.231z" fill="#a399b2"/>
	</g>
</g>
<g>
	<g>
		<path d="M72.977,241.231H50.39c-8.157,0-14.769,6.613-14.769,14.769s6.613,14.769,14.769,14.769h22.587    c8.157,0,14.769-6.613,14.769-14.769S81.133,241.231,72.977,241.231z" fill="#a399b2"/>
	</g>
</g>
<g>
	<g>
		<path d="M312.76,241.231h-32.434c-8.157,0-14.769,6.613-14.769,14.769s6.613,14.769,14.769,14.769h32.434    c8.157,0,14.769-6.613,14.769-14.769S320.918,241.231,312.76,241.231z" fill="#a399b2"/>
	</g>
</g>
<g>
	<g>
		<path d="M393.846,241.231h-32.434c-8.157,0-14.769,6.613-14.769,14.769s6.613,14.769,14.769,14.769h32.434    c8.157,0,14.769-6.613,14.769-14.769S402.003,241.231,393.846,241.231z" fill="#a399b2"/>
	</g>
</g>
<g>
	<g>
		<path d="M256,346.643c-8.157,0-14.769,6.613-14.769,14.769v32.434c0,8.157,6.613,14.769,14.769,14.769s14.769-6.613,14.769-14.769    v-32.434C270.769,353.254,264.157,346.643,256,346.643z" fill="#a399b2"/>
	</g>
</g>
<g>
	<g>
		<path d="M256,275.403c-8.157,0-14.769,6.613-14.769,14.769v22.588c0,8.157,6.613,14.769,14.769,14.769s14.769-6.613,14.769-14.769    v-22.588C270.769,282.016,264.157,275.403,256,275.403z" fill="#a399b2"/>
	</g>
</g>
<g>
	<g>
		<path d="M256,35.619c-8.157,0-14.769,6.613-14.769,14.769v22.588c0,8.157,6.613,14.769,14.769,14.769s14.769-6.613,14.769-14.769    V50.389C270.769,42.232,264.157,35.619,256,35.619z" fill="#a399b2"/>
	</g>
</g>
<g>
	<g>
		<path d="M256,424.254c-8.157,0-14.769,6.613-14.769,14.769v22.588c0,8.157,6.613,14.769,14.769,14.769s14.769-6.613,14.769-14.769    v-22.588C270.769,430.867,264.157,424.254,256,424.254z" fill="#a399b2"/>
	</g>
</g>
<g>
	<g>
		<path d="M256,184.471c-8.157,0-14.769,6.613-14.769,14.769v22.588c0,8.157,6.613,14.769,14.769,14.769s14.769-6.613,14.769-14.769    V199.24C270.769,191.083,264.157,184.471,256,184.471z" fill="#a399b2"/>
	</g>
</g>
<g>
	<g>
		<path d="M256,103.385c-8.157,0-14.769,6.613-14.769,14.769v32.434c0,8.157,6.613,14.769,14.769,14.769s14.769-6.613,14.769-14.769    v-32.434C270.769,109.997,264.157,103.385,256,103.385z" fill="#a399b2"/>
	</g>
</g>
<g>
	<g>
		<path d="M150.588,0h-32.434c-8.157,0-14.769,6.613-14.769,14.769s6.613,14.769,14.769,14.769h32.434    c8.157,0,14.769-6.613,14.769-14.769S158.746,0,150.588,0z" fill="#a399b2"/>
	</g>
</g>
<g>
	<g>
		<path d="M231.674,0H199.24c-8.157,0-14.769,6.613-14.769,14.769s6.612,14.769,14.769,14.769h32.434    c8.157,0,14.769-6.613,14.769-14.769S239.831,0,231.674,0z" fill="#a399b2"/>
	</g>
</g>
<g>
	<g>
		<path d="M312.76,0h-32.434c-8.157,0-14.769,6.613-14.769,14.769s6.613,14.769,14.769,14.769h32.434    c8.157,0,14.769-6.613,14.769-14.769S320.918,0,312.76,0z" fill="#a399b2"/>
	</g>
</g>
<g>
	<g>
		<path d="M393.846,0h-32.434c-8.157,0-14.769,6.613-14.769,14.769s6.613,14.769,14.769,14.769h32.434    c8.157,0,14.769-6.613,14.769-14.769S402.003,0,393.846,0z" fill="#a399b2"/>
	</g>
</g>
<g>
	<g>
		<path d="M497.231,103.385c-8.157,0-14.769,6.613-14.769,14.769v32.434c0,8.157,6.613,14.769,14.769,14.769    S512,158.745,512,150.588v-32.434C512,109.997,505.387,103.385,497.231,103.385z" fill="#a399b2"/>
	</g>
</g>
<g>
	<g>
		<path d="M497.231,184.471c-8.157,0-14.769,6.613-14.769,14.769v32.434c0,8.157,6.613,14.769,14.769,14.769    S512,239.831,512,231.674V199.24C512,191.083,505.387,184.471,497.231,184.471z" fill="#a399b2"/>
	</g>
</g>
<g>
	<g>
		<path d="M497.231,265.557c-8.157,0-14.769,6.613-14.769,14.769v32.434c0,8.157,6.613,14.769,14.769,14.769S512,320.917,512,312.76    v-32.434C512,272.169,505.387,265.557,497.231,265.557z" fill="#a399b2"/>
	</g>
</g>
<g>
	<g>
		<path d="M497.231,346.643c-8.157,0-14.769,6.613-14.769,14.769v32.434c0,8.157,6.613,14.769,14.769,14.769    S512,402.003,512,393.846v-32.434C512,353.254,505.387,346.643,497.231,346.643z" fill="#a399b2"/>
	</g>
</g>
<g>
</g>
<g>
</g>
<g>
</g>
<g>
</g>
<g>
</g>
<g>
</g>
<g>
</g>
<g>
</g>
<g>
</g>
<g>
</g>
<g>
</g>
<g>
</g>
<g>
</g>
<g>
</g>
<g>
</g>
</svg>
